<svg width="21" height="21" viewBox="0 0 21 21" fill="none" xmlns="http://www.w3.org/2000/svg">
<g clip-path="url(#clip0_7558_60351)">
<path fill-rule="evenodd" clip-rule="evenodd" d="M21 10.5C21 16.299 16.299 21 10.5 21C4.70101 21 0 16.299 0 10.5C0 4.70101 4.70101 0 10.5 0C16.299 0 21 4.70101 21 10.5ZM15.5184 10.7728C15.1546 10.1445 14.5676 10.1445 14.2038 10.7728L11.8972 14.7496C11.5416 15.3779 11.8393 15.8905 12.5586 15.8905H17.1223C17.8499 15.8905 18.1475 15.3779 17.7838 14.7496L15.5184 10.7728ZM11.1283 3.11693C10.7645 2.48858 10.1857 2.48858 9.82196 3.11693L3.21605 14.7496C2.85227 15.3862 3.14991 15.8905 3.87747 15.8905H7.19282C7.86251 15.8492 8.46605 15.4937 8.82983 14.9315L12.8231 8.01142C13.1125 7.41614 13.1125 6.71338 12.8231 6.11811L11.6326 4.02638L11.1283 3.11693Z" fill="white"/>
</g>
<defs>
<clipPath id="clip0_7558_60351">
<rect width="21" height="21" fill="white"/>
</clipPath>
</defs>
</svg>
