<svg width="26" height="24" viewBox="0 0 26 24" fill="none" xmlns="http://www.w3.org/2000/svg">
<g clip-path="url(#clip0_7558_60358)">
<path d="M7.14574 11.9133C7.09033 12.876 7.83145 13.7003 8.79422 13.7557C8.82886 13.7557 8.86349 13.7557 8.89812 13.7557C9.86782 13.7557 10.6505 12.973 10.6436 12.0033C10.6436 11.0336 9.86089 10.2509 8.89119 10.2579C7.96305 10.2579 7.19422 10.9851 7.14574 11.9133Z" fill="white"/>
<path d="M0.621398 11.4632C0.30971 11.4424 0.0395803 11.6848 0.0257275 11.9965C0.0118746 12.3082 0.247372 12.5783 0.559061 12.5922C0.870749 12.6129 1.13395 12.3705 1.15473 12.0588C1.17551 11.7471 0.933087 11.4839 0.621398 11.4632Z" fill="white"/>
<path d="M7.03517 1.75937C7.31223 1.62084 7.42305 1.27452 7.28452 0.997465C7.14599 0.720409 6.79967 0.609587 6.52261 0.748115C6.24556 0.886643 6.13473 1.22604 6.27326 1.50309C6.41179 1.78708 6.75118 1.90483 7.03517 1.75937C7.03517 1.75937 7.02824 1.75937 7.03517 1.75937Z" fill="white"/>
<path d="M8.80813 4.85519C9.23756 4.64047 9.41072 4.11406 9.196 3.68462C8.98128 3.25519 8.45488 3.08203 8.02544 3.29674C7.59601 3.51146 7.42285 4.03787 7.63756 4.46731C7.85228 4.89674 8.37869 5.0699 8.80813 4.85519Z" fill="white"/>
<path d="M2.83793 6.98169C3.1704 7.19641 3.61369 7.10637 3.83534 6.7739C4.05006 6.44143 3.96001 5.99814 3.62754 5.7765C3.29508 5.56178 2.85179 5.65182 2.63014 5.98429C2.4085 6.31676 2.50547 6.76698 2.83793 6.98169Z" fill="white"/>
<path d="M3.89754 11.1514C3.41269 11.1237 3.00403 11.4908 2.97632 11.9756C2.94862 12.4605 3.31572 12.8691 3.80057 12.8968C4.28541 12.9245 4.69407 12.5574 4.72178 12.0726C4.74948 11.5947 4.38238 11.1791 3.89754 11.1514Z" fill="white"/>
<path d="M2.93485 17.0183C2.5816 17.1984 2.43615 17.6279 2.61623 17.988C2.79632 18.3413 3.22576 18.4867 3.58593 18.3066C3.93918 18.1266 4.08463 17.6971 3.90455 17.337C3.72446 16.9837 3.2881 16.8382 2.93485 17.0183Z" fill="white"/>
<path d="M6.32874 9.34362C6.80666 9.65531 7.44389 9.52371 7.74865 9.04579C8.06034 8.56787 7.92874 7.93064 7.45082 7.62588C6.9729 7.31419 6.33567 7.44579 6.0309 7.92371C5.71922 8.39471 5.85082 9.03194 6.32874 9.34362Z" fill="white"/>
<path d="M17.0991 4.78588C17.5008 5.04908 18.048 4.93826 18.3112 4.53653C18.5744 4.13479 18.4636 3.58761 18.0619 3.3244C17.6601 3.0612 17.1129 3.17202 16.8497 3.57376C16.5796 3.98241 16.6904 4.52267 17.0991 4.78588Z" fill="white"/>
<path d="M18.8863 1.70386C19.1495 1.87702 19.4958 1.80083 19.6689 1.53762C19.8421 1.27442 19.7659 0.928101 19.5027 0.754941C19.2395 0.581781 18.8932 0.657971 18.72 0.914248C18.5538 1.17745 18.63 1.5307 18.8863 1.70386Z" fill="white"/>
<path d="M17.2308 10.2441C16.2681 10.1887 15.4369 10.9298 15.3884 11.8926C15.333 12.8554 16.0741 13.6866 17.0369 13.735C17.0715 13.735 17.1062 13.735 17.1339 13.735C18.0966 13.735 18.8793 12.9524 18.8793 11.9827C18.8862 11.0614 18.159 10.2926 17.2308 10.2441Z" fill="white"/>
<path d="M9.38343 9.21888C9.68127 9.80762 10.2839 10.1816 10.9488 10.1816C11.9116 10.1816 12.6943 9.39896 12.6943 8.42927C12.6943 8.15914 12.6319 7.88901 12.5072 7.63966C12.0709 6.77386 11.0181 6.42754 10.1592 6.8639C9.29339 7.30719 8.94707 8.36 9.38343 9.21888Z" fill="white"/>
<path d="M23.0908 6.98183C23.444 6.80175 23.5826 6.36538 23.4025 6.01214C23.2224 5.65889 22.786 5.52036 22.4328 5.70045C22.0795 5.88053 21.941 6.30997 22.1142 6.66322C22.3012 7.01646 22.7306 7.16192 23.0908 6.98183Z" fill="white"/>
<path d="M18.6579 7.53609C18.1523 7.79237 17.9445 8.40882 18.2008 8.91445C18.457 9.42008 19.0735 9.62787 19.5791 9.37159C20.0847 9.11531 20.2925 8.49886 20.0363 7.99324C19.78 7.48761 19.1635 7.28674 18.6579 7.53609Z" fill="white"/>
<path d="M12.9437 1.44074C13.3385 1.46152 13.6779 1.15676 13.7056 0.761952C13.7333 0.367147 13.4216 0.0277533 13.0268 4.76316e-05C12.632 -0.0207316 12.2926 0.277104 12.2649 0.671909C12.2441 1.07364 12.5489 1.41303 12.9437 1.44074Z" fill="white"/>
<path d="M12.9365 5.96376C13.5045 5.9984 13.9894 5.56203 14.0171 4.99407C14.0517 4.4261 13.6153 3.94125 13.0474 3.91355C12.4794 3.87892 11.9946 4.31528 11.9668 4.88324C11.9391 5.45121 12.3686 5.93606 12.9365 5.96376Z" fill="white"/>
<path d="M7.36744 16.464C7.87307 16.2077 8.08086 15.5913 7.82458 15.0856C7.5683 14.58 6.95185 14.3722 6.44623 14.6285C5.9406 14.8848 5.73281 15.5012 5.98908 16.0068C6.24536 16.5125 6.86181 16.7203 7.36744 16.464Z" fill="white"/>
<path d="M13.6016 7.46686C13.0752 8.27724 13.2968 9.35776 14.1072 9.88417C14.9176 10.4106 15.9981 10.1889 16.5245 9.37854C17.0509 8.56815 16.8293 7.48763 16.0189 6.96123C15.7349 6.77422 15.4025 6.67725 15.0631 6.67725C14.4743 6.67725 13.9271 6.97508 13.6016 7.46686Z" fill="white"/>
<path d="M16.642 14.7808C16.2056 13.915 15.1528 13.5686 14.294 14.005C13.4282 14.4414 13.0818 15.4942 13.5182 16.3531C13.9546 17.2189 15.0074 17.5652 15.8663 17.1288C16.7251 16.6994 17.0784 15.6604 16.6489 14.7946C16.6489 14.7877 16.6489 14.7877 16.642 14.7808Z" fill="white"/>
<path d="M19.6967 14.6561C19.2187 14.3445 18.5815 14.4761 18.2768 14.954C17.9651 15.4319 18.0967 16.0691 18.5746 16.3739C19.0525 16.6856 19.6897 16.554 19.9945 16.0761C20.3062 15.6051 20.1746 14.9678 19.6967 14.6561Z" fill="white"/>
<path d="M23.0492 12.0311C23.0769 11.5462 22.7098 11.1376 22.2249 11.1099C21.7401 11.0822 21.3314 11.4493 21.3037 11.9341C21.276 12.419 21.6431 12.8276 22.128 12.8553C22.6059 12.883 23.0215 12.509 23.0492 12.0311Z" fill="white"/>
<path d="M25.4661 11.408C25.1544 11.3872 24.8843 11.6296 24.8705 11.9413C24.8566 12.253 25.0921 12.5231 25.4038 12.537C25.7155 12.5578 25.9787 12.3153 25.9995 12.0037C26.0133 11.692 25.7778 11.4288 25.4661 11.408Z" fill="white"/>
<path d="M23.1877 17.0182C22.8553 16.8035 22.412 16.8935 22.1903 17.226C21.9756 17.5585 22.0656 18.0017 22.3981 18.2234C22.7306 18.4381 23.1739 18.3481 23.3955 18.0156C23.6172 17.6831 23.5202 17.2329 23.1877 17.0182Z" fill="white"/>
<path d="M7.13211 22.296C6.8689 22.1228 6.52258 22.199 6.34942 22.4553C6.17626 22.7185 6.25245 23.0648 6.50873 23.2379C6.77193 23.4111 7.11825 23.3349 7.29141 23.0786C7.4715 22.8224 7.39531 22.4691 7.13211 22.296Z" fill="white"/>
<path d="M18.9901 22.2407C18.7131 22.3793 18.6023 22.7256 18.7408 23.0026C18.8793 23.2797 19.2256 23.3905 19.5027 23.252C19.7798 23.1135 19.8906 22.7741 19.752 22.497C19.6135 22.213 19.2741 22.0953 18.9901 22.2407C18.9971 22.2407 18.9901 22.2407 18.9901 22.2407Z" fill="white"/>
<path d="M12.4239 16.5332C12.9503 15.7228 12.7287 14.6423 11.9183 14.1089C11.1079 13.5825 10.0274 13.8042 9.49405 14.6145C8.96072 15.4249 9.18929 16.5055 9.99968 17.0388C10.2837 17.2258 10.6161 17.3228 10.9555 17.3228C11.5512 17.3297 12.0984 17.0319 12.4239 16.5332Z" fill="white"/>
<path d="M8.92593 19.2141C8.5242 18.9508 7.97701 19.0617 7.71381 19.4634C7.45061 19.8651 7.56143 20.4123 7.96316 20.6755C8.36489 20.9387 8.91208 20.8279 9.17528 20.4262C9.44541 20.0244 9.33459 19.4773 8.92593 19.2141Z" fill="white"/>
<path d="M13.0056 22.5591C12.6108 22.5383 12.2714 22.8431 12.2437 23.2379C12.216 23.6327 12.5276 23.9721 12.9224 23.9998C13.3172 24.0206 13.6566 23.7227 13.6843 23.3279C13.7051 22.9262 13.4004 22.5868 13.0056 22.5591Z" fill="white"/>
<path d="M13.0126 18.0366C12.4447 18.002 11.9598 18.4383 11.9321 19.0063C11.8975 19.5743 12.3338 20.0591 12.9018 20.0868C13.4698 20.1145 13.9546 19.6851 13.9823 19.1171C14.0169 18.5561 13.5806 18.0643 13.0126 18.0366Z" fill="white"/>
<path d="M17.2169 19.1445C16.7874 19.3662 16.6143 19.8926 16.8359 20.322C17.0575 20.7514 17.584 20.9246 18.0134 20.7029C18.4428 20.4882 18.616 19.9618 18.4013 19.5324C18.1796 19.103 17.6532 18.9229 17.2169 19.1445Z" fill="white"/>
</g>
<defs>
<clipPath id="clip0_7558_60358">
<rect width="25.974" height="24" fill="white" transform="translate(0.0258789)"/>
</clipPath>
</defs>
</svg>
