<svg width="70" height="70" viewBox="0 0 70 70" fill="none" xmlns="http://www.w3.org/2000/svg">
<rect width="70" height="70" rx="20" fill="#9B1BFA"/>
<path d="M25.8748 39.3643L30.4108 34.8283L34.1814 38.6003L38.3908 34.391L36.0001 32.0003H42.6668V38.667L40.2761 36.2763L34.1814 42.371L30.4108 38.6003L27.1108 41.899C28.6086 44.1535 30.9076 45.7542 33.5417 46.3768C36.1759 46.9994 38.9482 46.5973 41.2969 45.2519C43.6456 43.9066 45.395 41.7187 46.1907 39.1315C46.9863 36.5444 46.7686 33.7515 45.5818 31.3189C44.3949 28.8863 42.3276 26.9958 39.7988 26.0307C37.27 25.0655 34.4689 25.0978 31.963 26.121C29.4571 27.1441 27.434 29.0817 26.3035 31.5411C25.173 34.0004 25.0197 36.7975 25.8748 39.3657V39.3643ZM23.8241 41.4417L23.8108 41.4283L23.8161 41.423C23.056 39.7163 22.6644 37.8686 22.6668 36.0003C22.6668 28.6363 28.6361 22.667 36.0001 22.667C43.3641 22.667 49.3334 28.6363 49.3334 36.0003C49.3334 43.3643 43.3641 49.3337 36.0001 49.3337C30.5734 49.3337 25.9068 46.0937 23.8241 41.4417V41.4417Z" fill="white"/>
</svg>
