<svg width="77" height="78" viewBox="0 0 77 78" fill="none" xmlns="http://www.w3.org/2000/svg">
<mask id="mask0_7_14" style="mask-type:alpha" maskUnits="userSpaceOnUse" x="20" y="2" width="57" height="76">
<path d="M20.4114 34.37C23.1716 24.3778 33.4961 18.5225 43.49 21.2827C53.4823 24.0429 59.3376 34.3674 56.5774 44.3605C52.5751 58.8477 42.1376 70.6758 28.2674 76.4897C45.1343 81.1488 63.5867 73.7839 72.3118 57.7559C82.4784 39.0808 75.5588 15.7148 56.8846 5.5482C54.2651 4.11285 51.5239 3.01411 48.749 2.24767C34.802 7.92779 24.3152 19.8275 20.4114 34.37Z" fill="url(#paint0_linear_7_14)"/>
</mask>
<g mask="url(#mask0_7_14)">
<rect x="-2.91333" y="-2.05142" width="82.8268" height="82.8268" fill="url(#paint1_linear_7_14)"/>
</g>
<mask id="mask1_7_14" style="mask-type:alpha" maskUnits="userSpaceOnUse" x="0" y="0" width="57" height="77">
<path d="M20.1034 73.1824C22.7488 74.6247 25.4642 75.7156 28.2408 76.4829L28.2667 76.4898C42.1368 70.6759 52.5744 58.8479 56.5767 44.3606C53.8164 54.3537 43.4911 60.209 33.4989 57.4488C23.5049 54.6877 17.6496 44.3632 20.4107 34.3701C24.3137 19.8276 34.8013 7.92792 48.7483 2.2478C31.8874 -2.43802 13.4091 4.91998 4.67706 20.9747C-5.4636 39.6567 1.42832 63.0158 20.1034 73.1824Z" fill="url(#paint2_linear_7_14)"/>
</mask>
<g mask="url(#mask1_7_14)">
<rect x="-2.91333" y="-2.05142" width="82.8268" height="82.8268" fill="url(#paint3_linear_7_14)"/>
</g>
<defs>
<linearGradient id="paint0_linear_7_14" x1="37.3997" y1="7.5635" x2="57.691" y2="70.647" gradientUnits="userSpaceOnUse">
<stop stop-color="#E3F1DA"/>
<stop offset="1" stop-color="#CCF3B6"/>
</linearGradient>
<linearGradient id="paint1_linear_7_14" x1="-2.91333" y1="39.362" x2="81.3582" y2="40.8634" gradientUnits="userSpaceOnUse">
<stop stop-color="#6F86FF"/>
<stop offset="0.333333" stop-color="#B372CE"/>
<stop offset="1" stop-color="#FF7586"/>
</linearGradient>
<linearGradient id="paint2_linear_7_14" x1="16.6208" y1="14.4245" x2="47.8133" y2="62.8788" gradientUnits="userSpaceOnUse">
<stop stop-color="#D0F1BD"/>
<stop offset="1" stop-color="#90E65D"/>
</linearGradient>
<linearGradient id="paint3_linear_7_14" x1="-2.91333" y1="39.362" x2="55.0041" y2="53.3028" gradientUnits="userSpaceOnUse">
<stop stop-color="#6F86FF"/>
<stop offset="0.9999" stop-color="#A75CC7"/>
<stop offset="1" stop-color="#FF7586"/>
</linearGradient>
</defs>
</svg>
