<svg width="26" height="28" viewBox="0 0 26 28" fill="none" xmlns="http://www.w3.org/2000/svg">
<path d="M1.45335 20.6664C0.889714 19.6917 0.451573 18.6497 0.149353 17.5651C0.807096 17.2306 1.35948 16.7206 1.74539 16.0916C2.13131 15.4626 2.33571 14.7392 2.33598 14.0012C2.33626 13.2633 2.1324 12.5397 1.74696 11.9104C1.36151 11.2812 0.809512 10.7708 0.15202 10.4358C0.754734 8.25641 1.90233 6.26637 3.48669 4.6531C4.10548 5.0554 4.82351 5.27865 5.56132 5.29814C6.29914 5.31763 7.02796 5.13261 7.66713 4.76354C8.3063 4.39447 8.83089 3.85576 9.18285 3.20702C9.53482 2.55827 9.70043 1.8248 9.66135 1.08776C11.8508 0.521927 14.1483 0.522845 16.3374 1.09043C16.2986 1.82745 16.4646 2.56082 16.8168 3.20937C17.169 3.85793 17.6938 4.3964 18.3331 4.76518C18.9724 5.13396 19.7013 5.31868 20.4391 5.2989C21.1768 5.27912 21.8947 5.05561 22.5134 4.6531C23.2854 5.43976 23.9707 6.33443 24.5467 7.3331C25.124 8.33176 25.556 9.3731 25.8507 10.4344C25.1929 10.769 24.6406 11.2789 24.2546 11.9079C23.8687 12.5369 23.6643 13.2604 23.6641 13.9983C23.6638 14.7362 23.8676 15.4598 24.2531 16.0891C24.6385 16.7184 25.1905 17.2287 25.848 17.5638C25.2453 19.7431 24.0977 21.7332 22.5134 23.3464C21.8946 22.9441 21.1765 22.7209 20.4387 22.7014C19.7009 22.6819 18.9721 22.8669 18.3329 23.236C17.6937 23.6051 17.1691 24.1438 16.8172 24.7925C16.4652 25.4413 16.2996 26.1747 16.3387 26.9118C14.1492 27.4776 11.8517 27.4767 9.66269 26.9091C9.70142 26.1721 9.53548 25.4387 9.18325 24.7902C8.83101 24.1416 8.30621 23.6031 7.66691 23.2344C7.02762 22.8656 6.29876 22.6808 5.56099 22.7006C4.82322 22.7204 4.1053 22.9439 3.48669 23.3464C2.69867 22.5424 2.01548 21.6419 1.45335 20.6664ZM9.00002 20.9278C10.4209 21.7473 11.4891 23.0625 12 24.6211C12.6654 24.6838 13.3334 24.6851 13.9987 24.6224C14.5099 23.0636 15.5787 21.7484 17 20.9291C18.4203 20.1073 20.094 19.8391 21.7 20.1758C22.0867 19.6318 22.42 19.0518 22.6974 18.4451C21.6033 17.223 20.9988 15.64 21 13.9998C21 12.3198 21.6267 10.7504 22.6974 9.55443C22.4181 8.94796 22.0833 8.36861 21.6974 7.82376C20.0924 8.16018 18.4197 7.8924 17 7.07176C15.5792 6.25226 14.5109 4.93707 14 3.37843C13.3347 3.31576 12.6667 3.31443 12.0014 3.3771C11.4901 4.93596 10.4214 6.25118 9.00002 7.07043C7.57973 7.89218 5.90599 8.16046 4.30002 7.82376C3.91411 8.36814 3.5802 8.94758 3.30269 9.55443C4.39678 10.7765 5.0012 12.3595 5.00002 13.9998C5.00002 15.6798 4.37335 17.2491 3.30269 18.4451C3.58198 19.0516 3.91674 19.6309 4.30269 20.1758C5.90764 19.8394 7.5803 20.1071 9.00002 20.9278ZM13 17.9998C11.9392 17.9998 10.9217 17.5783 10.1716 16.8282C9.42145 16.078 9.00002 15.0606 9.00002 13.9998C9.00002 12.9389 9.42145 11.9215 10.1716 11.1713C10.9217 10.4212 11.9392 9.99976 13 9.99976C14.0609 9.99976 15.0783 10.4212 15.8284 11.1713C16.5786 11.9215 17 12.9389 17 13.9998C17 15.0606 16.5786 16.078 15.8284 16.8282C15.0783 17.5783 14.0609 17.9998 13 17.9998ZM13 15.3331C13.3536 15.3331 13.6928 15.1926 13.9428 14.9426C14.1929 14.6925 14.3334 14.3534 14.3334 13.9998C14.3334 13.6461 14.1929 13.307 13.9428 13.057C13.6928 12.8069 13.3536 12.6664 13 12.6664C12.6464 12.6664 12.3073 12.8069 12.0572 13.057C11.8072 13.307 11.6667 13.6461 11.6667 13.9998C11.6667 14.3534 11.8072 14.6925 12.0572 14.9426C12.3073 15.1926 12.6464 15.3331 13 15.3331Z" fill="#6A6A9F"/>
</svg>
