<svg width="28" height="27" viewBox="0 0 28 27" fill="none" xmlns="http://www.w3.org/2000/svg">
<path d="M6.31333 5.93733C4.61339 7.70172 3.57266 9.99754 3.36609 12.4389C3.15952 14.8802 3.79969 17.3183 5.17901 19.3432C6.55832 21.3682 8.59268 22.8565 10.9401 23.5582C13.2876 24.2598 15.8051 24.1319 18.0693 23.196C18.2227 22.196 17.8867 21.236 17.7493 20.9C17.4427 20.1533 16.432 18.8773 14.7453 17.108C14.2947 16.6347 14.324 16.2707 14.4853 15.192L14.5027 15.0707C14.612 14.332 14.796 13.8947 17.2827 13.5C18.5467 13.3 18.8787 13.804 19.3387 14.504L19.4933 14.7333C19.9307 15.3733 20.2547 15.52 20.744 15.7413C20.964 15.8413 21.2373 15.968 21.604 16.1747C22.4733 16.672 22.4733 17.2333 22.4733 18.4627V18.6027C22.4733 19.124 22.4227 19.5827 22.3427 19.9813C23.3658 18.6972 24.0788 17.1943 24.4261 15.5896C24.7734 13.9849 24.7457 12.3216 24.3451 10.7294C23.9445 9.13712 23.1818 7.65881 22.1164 6.40952C21.051 5.16023 19.7117 4.17368 18.2027 3.52667C17.4653 4.024 16.4533 4.72933 16.1 5.21333C15.92 5.46 15.664 6.72267 14.8333 6.82667C14.6173 6.85333 14.3253 6.83467 14.016 6.81467C13.1867 6.76133 12.0533 6.688 11.6907 7.67333C11.46 8.29733 11.42 9.99333 12.1653 10.8733C12.2853 11.0133 12.308 11.2733 12.2267 11.5653C12.12 11.948 11.9053 12.1813 11.8373 12.2293C11.7093 12.1547 11.4533 11.8573 11.2787 11.656C10.8613 11.1693 10.3387 10.5627 9.664 10.376C9.41866 10.308 9.14933 10.252 8.88666 10.196C8.15466 10.0427 7.32666 9.868 7.13333 9.45733C6.992 9.156 6.99333 8.74133 6.99333 8.304C6.99333 7.748 6.99333 7.12 6.72133 6.51067C6.62677 6.29321 6.4878 6.09792 6.31333 5.93733ZM14 26.6667C6.636 26.6667 0.666664 20.6973 0.666664 13.3333C0.666664 5.96933 6.636 0 14 0C21.364 0 27.3333 5.96933 27.3333 13.3333C27.3333 20.6973 21.364 26.6667 14 26.6667Z" fill="currentColor"/>
</svg>
