<svg width="187" height="134" viewBox="0 0 187 134" fill="none" xmlns="http://www.w3.org/2000/svg">
<path d="M161.272 93.341C161.272 56.0905 131.153 25.8931 94 25.8931C56.8465 25.8931 26.7277 56.0905 26.7277 93.341" stroke="#05050F"/>
<path d="M43.5703 118.107C39.7624 110.556 37.6177 102.023 37.6177 92.9896C37.6177 62.1416 62.625 37.1343 93.473 37.1343C124.321 37.1343 149.328 62.1416 149.328 92.9896C149.328 102.023 147.184 110.556 143.376 118.107" stroke="#05050F" stroke-width="14" stroke-linecap="round"/>
<g filter="url(#filter0_dd_32_27668)">
<path d="M43.5703 118.107C39.7624 110.556 37.6177 102.023 37.6177 92.9896C37.6177 62.1416 62.625 37.1343 93.4731 37.1343C142.228 37.1343 151.228 82.8931 148.728 99.3931" stroke="url(#paint0_linear_32_27668)" stroke-width="14" stroke-linecap="round"/>
</g>
<path d="M75.4149 84.3066C75.4149 85.1725 75.353 86.0156 75.2293 86.8359C75.1121 87.6562 74.907 88.4212 74.6141 89.1309C74.3276 89.8405 73.937 90.4622 73.4422 90.9961C72.9474 91.5299 72.3257 91.9499 71.577 92.2559C70.8348 92.5553 69.9461 92.7051 68.911 92.7051C68.631 92.7051 68.312 92.6855 67.9539 92.6465C67.5959 92.6139 67.3029 92.5651 67.075 92.5V91.0938C67.3159 91.1784 67.5991 91.2467 67.9246 91.2988C68.2501 91.3444 68.5692 91.3672 68.8817 91.3672C70.0991 91.3672 71.0561 91.1068 71.7528 90.5859C72.4494 90.0586 72.9507 89.3457 73.2567 88.4473C73.5626 87.5423 73.7352 86.5267 73.7742 85.4004H73.657C73.4617 85.7129 73.2046 86.0026 72.8856 86.2695C72.5731 86.5299 72.1922 86.7415 71.743 86.9043C71.2938 87.0605 70.7697 87.1387 70.1707 87.1387C69.3439 87.1387 68.6212 86.9694 68.0028 86.6309C67.3908 86.2923 66.9123 85.8008 66.5672 85.1562C66.2287 84.5117 66.0594 83.7337 66.0594 82.8223C66.0594 81.8392 66.2449 80.9896 66.616 80.2734C66.9936 79.5508 67.521 78.9941 68.1981 78.6035C68.8751 78.2129 69.6727 78.0176 70.5906 78.0176C71.2938 78.0176 71.9383 78.151 72.5242 78.418C73.1102 78.6849 73.618 79.0853 74.0477 79.6191C74.4839 80.1465 74.8192 80.8008 75.0535 81.582C75.2944 82.3633 75.4149 83.2715 75.4149 84.3066ZM70.5906 79.3945C69.7248 79.3945 69.0216 79.6777 68.4813 80.2441C67.9474 80.8105 67.6805 81.6634 67.6805 82.8027C67.6805 83.7467 67.9116 84.4922 68.3738 85.0391C68.8361 85.5859 69.549 85.8594 70.5125 85.8594C71.1766 85.8594 71.7495 85.7259 72.2313 85.459C72.7195 85.1921 73.0939 84.8535 73.3543 84.4434C73.6212 84.0332 73.7547 83.6133 73.7547 83.1836C73.7547 82.7539 73.6896 82.3177 73.5594 81.875C73.4357 81.4323 73.2436 81.0254 72.9832 80.6543C72.7228 80.2767 72.394 79.974 71.9969 79.7461C71.5998 79.5117 71.131 79.3945 70.5906 79.3945ZM79.7709 92.5L85.6303 79.707H77.847V78.2227H87.3685V79.4727L81.5482 92.5H79.7709ZM90.289 91.4844C90.289 91.0286 90.3997 90.7064 90.621 90.5176C90.8424 90.3223 91.1126 90.2246 91.4316 90.2246C91.7636 90.2246 92.0436 90.3223 92.2714 90.5176C92.4993 90.7064 92.6132 91.0286 92.6132 91.4844C92.6132 91.9336 92.4993 92.2624 92.2714 92.4707C92.0436 92.6725 91.7636 92.7734 91.4316 92.7734C91.1126 92.7734 90.8424 92.6725 90.621 92.4707C90.3997 92.2624 90.289 91.9336 90.289 91.4844ZM105.573 89.1895H103.434V92.5H101.852V89.1895H94.9478V87.8223L101.745 78.1445H103.434V87.7246H105.573V89.1895ZM101.852 87.7246V83.0566C101.852 82.6986 101.855 82.3763 101.862 82.0898C101.868 81.7969 101.878 81.5267 101.891 81.2793C101.904 81.0254 101.914 80.7845 101.92 80.5566C101.933 80.3288 101.943 80.1042 101.95 79.8828H101.872C101.748 80.1432 101.605 80.4199 101.442 80.7129C101.286 80.9993 101.126 81.2565 100.963 81.4844L96.5591 87.7246H101.852ZM110.3 78.0176C111.276 78.0176 112.015 78.4082 112.517 79.1895C113.024 79.9642 113.278 81.0612 113.278 82.4805C113.278 83.8997 113.034 85.0065 112.546 85.8008C112.058 86.5885 111.309 86.9824 110.3 86.9824C109.362 86.9824 108.643 86.5885 108.142 85.8008C107.647 85.0065 107.399 83.8997 107.399 82.4805C107.399 81.0612 107.637 79.9642 108.112 79.1895C108.588 78.4082 109.317 78.0176 110.3 78.0176ZM110.3 79.1797C109.773 79.1797 109.385 79.4564 109.138 80.0098C108.89 80.5566 108.767 81.3802 108.767 82.4805C108.767 83.5807 108.89 84.4108 109.138 84.9707C109.385 85.5306 109.773 85.8105 110.3 85.8105C110.847 85.8105 111.254 85.5306 111.521 84.9707C111.787 84.4108 111.921 83.5807 111.921 82.4805C111.921 81.3867 111.787 80.5632 111.521 80.0098C111.26 79.4564 110.853 79.1797 110.3 79.1797ZM119.343 78.2227L111.423 92.5H109.997L117.917 78.2227H119.343ZM118.962 83.7402C119.932 83.7402 120.671 84.1309 121.179 84.9121C121.687 85.6868 121.94 86.7839 121.94 88.2031C121.94 89.6159 121.696 90.7194 121.208 91.5137C120.72 92.3014 119.971 92.6953 118.962 92.6953C118.018 92.6953 117.299 92.3014 116.804 91.5137C116.309 90.7194 116.062 89.6159 116.062 88.2031C116.062 86.7839 116.296 85.6868 116.765 84.9121C117.24 84.1309 117.972 83.7402 118.962 83.7402ZM118.962 84.9121C118.435 84.9121 118.047 85.1855 117.8 85.7324C117.552 86.2793 117.429 87.1029 117.429 88.2031C117.429 89.3034 117.552 90.1335 117.8 90.6934C118.047 91.2467 118.435 91.5234 118.962 91.5234C119.509 91.5234 119.916 91.25 120.183 90.7031C120.45 90.1497 120.583 89.3164 120.583 88.2031C120.583 87.1094 120.45 86.2891 120.183 85.7422C119.922 85.1888 119.515 84.9121 118.962 84.9121Z" fill="white"/>
<defs>
<filter id="filter0_dd_32_27668" x="0.617737" y="0.134277" width="185.486" height="154.974" filterUnits="userSpaceOnUse" color-interpolation-filters="sRGB">
<feFlood flood-opacity="0" result="BackgroundImageFix"/>
<feColorMatrix in="SourceAlpha" type="matrix" values="0 0 0 0 0 0 0 0 0 0 0 0 0 0 0 0 0 0 127 0" result="hardAlpha"/>
<feOffset/>
<feGaussianBlur stdDeviation="15"/>
<feColorMatrix type="matrix" values="0 0 0 0 0.0208333 0 0 0 0 0.1775 0 0 0 0 1 0 0 0 0.46 0"/>
<feBlend mode="normal" in2="BackgroundImageFix" result="effect1_dropShadow_32_27668"/>
<feColorMatrix in="SourceAlpha" type="matrix" values="0 0 0 0 0 0 0 0 0 0 0 0 0 0 0 0 0 0 127 0" result="hardAlpha"/>
<feOffset dy="4"/>
<feGaussianBlur stdDeviation="2"/>
<feColorMatrix type="matrix" values="0 0 0 0 0 0 0 0 0 0 0 0 0 0 0 0 0 0 0.25 0"/>
<feBlend mode="normal" in2="effect1_dropShadow_32_27668" result="effect2_dropShadow_32_27668"/>
<feBlend mode="normal" in="SourceGraphic" in2="effect2_dropShadow_32_27668" result="shape"/>
</filter>
<linearGradient id="paint0_linear_32_27668" x1="122.231" y1="79.0168" x2="56.5151" y2="78.7937" gradientUnits="userSpaceOnUse">
<stop stop-color="#02A4FF"/>
<stop offset="1" stop-color="#7D40FF"/>
</linearGradient>
</defs>
</svg>
