<svg width="613" height="109" viewBox="0 0 613 109" fill="none" xmlns="http://www.w3.org/2000/svg">
<path d="M30.5625 98H11.5V6.625H63.875V22.5H30.5625V46.0625H61.5625V61.875H30.5625V98ZM185.75 26.8125C186.708 26.8125 187.812 26.875 189.062 27C190.354 27.0833 191.396 27.2083 192.188 27.375L190.75 45.25C190.125 45.0417 189.229 44.8958 188.062 44.8125C186.938 44.6875 185.958 44.625 185.125 44.625C182.667 44.625 180.271 44.9375 177.938 45.5625C175.646 46.1875 173.583 47.2083 171.75 48.625C169.917 50 168.458 51.8333 167.375 54.125C166.333 56.375 165.812 59.1458 165.812 62.4375V98H146.75V28.125H161.188L164 39.875H164.938C166.312 37.5 168.021 35.3333 170.062 33.375C172.146 31.375 174.5 29.7917 177.125 28.625C179.792 27.4167 182.667 26.8125 185.75 26.8125ZM234.312 84.0625C236.396 84.0625 238.417 83.8542 240.375 83.4375C242.375 83.0208 244.354 82.5 246.312 81.875V96.0625C244.271 96.9792 241.729 97.7292 238.688 98.3125C235.688 98.9375 232.396 99.25 228.812 99.25C224.646 99.25 220.896 98.5833 217.562 97.25C214.271 95.875 211.667 93.5208 209.75 90.1875C207.875 86.8125 206.938 82.125 206.938 76.125V42.4375H197.812V34.375L208.312 28L213.812 13.25H226V28.125H245.562V42.4375H226V76.125C226 78.7917 226.75 80.7917 228.25 82.125C229.792 83.4167 231.812 84.0625 234.312 84.0625ZM279.562 0.75V20.5625C279.562 24.0208 279.438 27.3125 279.188 30.4375C278.979 33.5625 278.812 35.7708 278.688 37.0625H279.688C281.188 34.6458 282.958 32.6875 285 31.1875C287.083 29.6875 289.375 28.5833 291.875 27.875C294.375 27.1667 297.062 26.8125 299.938 26.8125C304.979 26.8125 309.375 27.7083 313.125 29.5C316.875 31.25 319.792 34.0208 321.875 37.8125C323.958 41.5625 325 46.4375 325 52.4375V98H305.938V57.1875C305.938 52.1875 305.021 48.4167 303.188 45.875C301.354 43.3333 298.521 42.0625 294.688 42.0625C290.854 42.0625 287.833 42.9583 285.625 44.75C283.417 46.5 281.854 49.1042 280.938 52.5625C280.021 55.9792 279.562 60.1667 279.562 65.125V98H260.5V0.75H279.562ZM380.812 46.6875H417.062V94.0625C412.271 95.6458 407.292 96.9167 402.125 97.875C396.958 98.7917 391.104 99.25 384.562 99.25C375.479 99.25 367.771 97.4583 361.438 93.875C355.104 90.2917 350.292 85 347 78C343.708 71 342.062 62.3958 342.062 52.1875C342.062 42.6042 343.896 34.3125 347.562 27.3125C351.271 20.3125 356.667 14.8958 363.75 11.0625C370.875 7.22917 379.562 5.3125 389.812 5.3125C394.646 5.3125 399.417 5.83333 404.125 6.875C408.833 7.91667 413.104 9.27083 416.938 10.9375L410.5 26.4375C407.708 25.0208 404.521 23.8333 400.938 22.875C397.354 21.9167 393.604 21.4375 389.688 21.4375C384.062 21.4375 379.167 22.7292 375 25.3125C370.875 27.8958 367.667 31.5208 365.375 36.1875C363.125 40.8125 362 46.2708 362 52.5625C362 58.5208 362.812 63.8125 364.438 68.4375C366.062 73.0208 368.625 76.625 372.125 79.25C375.625 81.8333 380.188 83.125 385.812 83.125C388.562 83.125 390.875 83 392.75 82.75C394.667 82.4583 396.458 82.1667 398.125 81.875V62.8125H380.812V46.6875ZM476.375 26.8125C477.333 26.8125 478.438 26.875 479.688 27C480.979 27.0833 482.021 27.2083 482.812 27.375L481.375 45.25C480.75 45.0417 479.854 44.8958 478.688 44.8125C477.562 44.6875 476.583 44.625 475.75 44.625C473.292 44.625 470.896 44.9375 468.562 45.5625C466.271 46.1875 464.208 47.2083 462.375 48.625C460.542 50 459.083 51.8333 458 54.125C456.958 56.375 456.438 59.1458 456.438 62.4375V98H437.375V28.125H451.812L454.625 39.875H455.562C456.938 37.5 458.646 35.3333 460.688 33.375C462.771 31.375 465.125 29.7917 467.75 28.625C470.417 27.4167 473.292 26.8125 476.375 26.8125ZM514.562 28.125V98H495.5V28.125H514.562ZM505.062 0.75C507.896 0.75 510.333 1.41667 512.375 2.75C514.417 4.04167 515.438 6.47917 515.438 10.0625C515.438 13.6042 514.417 16.0625 512.375 17.4375C510.333 18.7708 507.896 19.4375 505.062 19.4375C502.188 19.4375 499.729 18.7708 497.688 17.4375C495.688 16.0625 494.688 13.6042 494.688 10.0625C494.688 6.47917 495.688 4.04167 497.688 2.75C499.729 1.41667 502.188 0.75 505.062 0.75ZM556.75 99.25C548.958 99.25 542.604 96.2083 537.688 90.125C532.812 84 530.375 75.0208 530.375 63.1875C530.375 51.2292 532.854 42.1875 537.812 36.0625C542.771 29.8958 549.25 26.8125 557.25 26.8125C560.583 26.8125 563.521 27.2708 566.062 28.1875C568.604 29.1042 570.792 30.3333 572.625 31.875C574.5 33.4167 576.083 35.1458 577.375 37.0625H578C577.75 35.7292 577.438 33.7708 577.062 31.1875C576.729 28.5625 576.562 25.875 576.562 23.125V0.75H595.688V98H581.062L577.375 88.9375H576.562C575.354 90.8542 573.833 92.6042 572 94.1875C570.208 95.7292 568.062 96.9583 565.562 97.875C563.062 98.7917 560.125 99.25 556.75 99.25ZM563.438 84.0625C568.646 84.0625 572.312 82.5208 574.438 79.4375C576.604 76.3125 577.75 71.625 577.875 65.375V63.3125C577.875 56.5208 576.833 51.3333 574.75 47.75C572.667 44.125 568.792 42.3125 563.125 42.3125C558.917 42.3125 555.625 44.125 553.25 47.75C550.875 51.375 549.688 56.6042 549.688 63.4375C549.688 70.2708 550.875 75.4167 553.25 78.875C555.667 82.3333 559.062 84.0625 563.438 84.0625Z" fill="white"/>
<mask id="mask0_7_11" style="mask-type:alpha" maskUnits="userSpaceOnUse" x="85" y="26" width="57" height="76">
<path d="M85.4114 58.37C88.1716 48.3778 98.4961 42.5225 108.49 45.2827C118.482 48.0429 124.338 58.3674 121.577 68.3605C117.575 82.8477 107.138 94.6758 93.2674 100.49C110.134 105.149 128.587 97.7839 137.312 81.7559C147.478 63.0808 140.559 39.7148 121.885 29.5482C119.265 28.1129 116.524 27.0141 113.749 26.2477C99.802 31.9278 89.3152 43.8275 85.4114 58.37Z" fill="url(#paint0_linear_7_11)"/>
</mask>
<g mask="url(#mask0_7_11)">
<rect x="62.0867" y="21.9486" width="82.8268" height="82.8268" fill="url(#paint1_linear_7_11)"/>
</g>
<mask id="mask1_7_11" style="mask-type:alpha" maskUnits="userSpaceOnUse" x="65" y="24" width="57" height="77">
<path d="M85.1034 97.1824C87.7488 98.6247 90.4642 99.7156 93.2408 100.483L93.2667 100.49C107.137 94.6759 117.574 82.8479 121.577 68.3606C118.816 78.3537 108.491 84.209 98.4989 81.4488C88.5049 78.6877 82.6496 68.3632 85.4107 58.3701C89.3137 43.8276 99.8013 31.9279 113.748 26.2478C96.8874 21.562 78.4091 28.92 69.6771 44.9747C59.5364 63.6567 66.4283 87.0158 85.1034 97.1824Z" fill="url(#paint2_linear_7_11)"/>
</mask>
<g mask="url(#mask1_7_11)">
<rect x="62.0867" y="21.9486" width="82.8268" height="82.8268" fill="url(#paint3_linear_7_11)"/>
</g>
<defs>
<linearGradient id="paint0_linear_7_11" x1="102.4" y1="31.5635" x2="122.691" y2="94.647" gradientUnits="userSpaceOnUse">
<stop stop-color="#E3F1DA"/>
<stop offset="1" stop-color="#CCF3B6"/>
</linearGradient>
<linearGradient id="paint1_linear_7_11" x1="62.0867" y1="63.362" x2="146.358" y2="64.8634" gradientUnits="userSpaceOnUse">
<stop stop-color="#6F86FF"/>
<stop offset="0.333333" stop-color="#B372CE"/>
<stop offset="1" stop-color="#FF7586"/>
</linearGradient>
<linearGradient id="paint2_linear_7_11" x1="81.6208" y1="38.4245" x2="112.813" y2="86.8788" gradientUnits="userSpaceOnUse">
<stop stop-color="#D0F1BD"/>
<stop offset="1" stop-color="#90E65D"/>
</linearGradient>
<linearGradient id="paint3_linear_7_11" x1="62.0867" y1="63.362" x2="120.004" y2="77.3028" gradientUnits="userSpaceOnUse">
<stop stop-color="#6F86FF"/>
<stop offset="0.9999" stop-color="#A75CC7"/>
<stop offset="1" stop-color="#FF7586"/>
</linearGradient>
</defs>
</svg>
