<svg width="20" height="20" viewBox="0 0 20 20" fill="none" xmlns="http://www.w3.org/2000/svg">
<path d="M9.99994 12.6381C9.09289 12.6381 8.18614 12.4164 7.3593 11.9729L1.39712 8.77484C0.532555 8.31114 -0.0026909 7.4144 0.00011869 6.4346C0.00296574 5.4548 0.543419 4.5612 1.41065 4.10245L7.38784 0.940839C9.02347 0.0757099 10.9764 0.0757099 12.612 0.940839L18.5892 4.10245C19.4565 4.56117 19.9969 5.45477 19.9998 6.4346C20.0026 7.4144 19.4673 8.31114 18.6028 8.77484L12.6405 11.9729C11.814 12.4164 10.9068 12.638 9.99994 12.6381ZM9.99994 1.85463C9.3537 1.85463 8.70749 2.01043 8.11841 2.32203L2.14129 5.48369C1.78016 5.6747 1.56382 6.03193 1.56266 6.43917C1.5615 6.84641 1.77571 7.20488 2.13574 7.39799L8.09796 10.596C9.28904 11.2349 10.7111 11.2349 11.9021 10.596L17.8644 7.39799C18.2244 7.20488 18.4386 6.84645 18.4374 6.43917C18.4363 6.03189 18.2199 5.6747 17.8588 5.48369L11.8815 2.32203C11.2924 2.01047 10.6462 1.85463 9.99994 1.85463ZM12.6406 19.0431L19.5878 15.3168C19.9681 15.1129 20.111 14.6393 19.907 14.2591C19.7031 13.8789 19.2296 13.736 18.8493 13.9399L11.902 17.6662C10.7111 18.305 9.289 18.305 8.09489 17.6646L1.14763 13.9774C0.766425 13.7751 0.293552 13.9201 0.0913367 14.3012C-0.110954 14.6823 0.0340211 15.1552 0.415151 15.3575L7.35934 19.0431C8.18618 19.4866 9.09293 19.7083 9.99998 19.7083C10.9068 19.7083 11.814 19.4865 12.6406 19.0431ZM12.6406 15.5276L19.5878 11.8013C19.9681 11.5974 20.111 11.1238 19.907 10.7436C19.7031 10.3633 19.2296 10.2205 18.8493 10.4244L11.902 14.1506C10.7111 14.7895 9.289 14.7895 8.09489 14.149L1.14763 10.4618C0.766425 10.2595 0.293552 10.4046 0.0913367 10.7856C-0.110954 11.1668 0.0340211 11.6396 0.415151 11.8419L7.35934 15.5275C8.18618 15.971 9.09293 16.1927 9.99998 16.1927C10.9068 16.1927 11.814 15.971 12.6406 15.5276Z" fill="#6A6A9F"/>
</svg>
