<svg width="28" height="29" viewBox="0 0 28 29" fill="none" xmlns="http://www.w3.org/2000/svg">
<path d="M24.6667 20.667H27.3333V23.3337H0.666664V20.667H3.33333V11.3337C3.33333 8.50468 4.45714 5.79157 6.45753 3.79119C8.45791 1.7908 11.171 0.666992 14 0.666992C16.829 0.666992 19.5421 1.7908 21.5425 3.79119C23.5429 5.79157 24.6667 8.50468 24.6667 11.3337V20.667ZM22 20.667V11.3337C22 9.21193 21.1571 7.1771 19.6569 5.67681C18.1566 4.17651 16.1217 3.33366 14 3.33366C11.8783 3.33366 9.84343 4.17651 8.34314 5.67681C6.84285 7.1771 6 9.21193 6 11.3337V20.667H22ZM10 26.0003H18V28.667H10V26.0003Z" fill="currentColor"/>
</svg>
