<svg width="28" height="28" viewBox="0 0 28 28" fill="none" xmlns="http://www.w3.org/2000/svg">
<path d="M6.22666 21.9997C6.50213 21.219 7.01298 20.5429 7.6888 20.0647C8.36461 19.5865 9.17211 19.3298 10 19.3298C10.8279 19.3298 11.6354 19.5865 12.3112 20.0647C12.987 20.5429 13.4979 21.219 13.7733 21.9997H27.3333V24.6664H13.7733C13.4979 25.4471 12.987 26.1231 12.3112 26.6013C11.6354 27.0795 10.8279 27.3363 10 27.3363C9.17211 27.3363 8.36461 27.0795 7.6888 26.6013C7.01298 26.1231 6.50213 25.4471 6.22666 24.6664H0.666664V21.9997H6.22666ZM14.2267 12.6664C14.5021 11.8856 15.013 11.2096 15.6888 10.7314C16.3646 10.2532 17.1721 9.99642 18 9.99642C18.8279 9.99642 19.6354 10.2532 20.3112 10.7314C20.987 11.2096 21.4979 11.8856 21.7733 12.6664H27.3333V15.333H21.7733C21.4979 16.1137 20.987 16.7898 20.3112 17.268C19.6354 17.7462 18.8279 18.003 18 18.003C17.1721 18.003 16.3646 17.7462 15.6888 17.268C15.013 16.7898 14.5021 16.1137 14.2267 15.333H0.666664V12.6664H14.2267ZM6.22666 3.33302C6.50213 2.55231 7.01298 1.87627 7.6888 1.39807C8.36461 0.91988 9.17211 0.663086 10 0.663086C10.8279 0.663086 11.6354 0.91988 12.3112 1.39807C12.987 1.87627 13.4979 2.55231 13.7733 3.33302H27.3333V5.99969H13.7733C13.4979 6.7804 12.987 7.45644 12.3112 7.93463C11.6354 8.41283 10.8279 8.66962 10 8.66962C9.17211 8.66962 8.36461 8.41283 7.6888 7.93463C7.01298 7.45644 6.50213 6.7804 6.22666 5.99969H0.666664V3.33302H6.22666ZM10 5.99969C10.3536 5.99969 10.6928 5.85921 10.9428 5.60916C11.1929 5.35911 11.3333 5.01998 11.3333 4.66635C11.3333 4.31273 11.1929 3.97359 10.9428 3.72354C10.6928 3.4735 10.3536 3.33302 10 3.33302C9.64638 3.33302 9.30724 3.4735 9.05719 3.72354C8.80714 3.97359 8.66666 4.31273 8.66666 4.66635C8.66666 5.01998 8.80714 5.35911 9.05719 5.60916C9.30724 5.85921 9.64638 5.99969 10 5.99969ZM18 15.333C18.3536 15.333 18.6928 15.1925 18.9428 14.9425C19.1929 14.6924 19.3333 14.3533 19.3333 13.9997C19.3333 13.6461 19.1929 13.3069 18.9428 13.0569C18.6928 12.8068 18.3536 12.6664 18 12.6664C17.6464 12.6664 17.3072 12.8068 17.0572 13.0569C16.8071 13.3069 16.6667 13.6461 16.6667 13.9997C16.6667 14.3533 16.8071 14.6924 17.0572 14.9425C17.3072 15.1925 17.6464 15.333 18 15.333ZM10 24.6664C10.3536 24.6664 10.6928 24.5259 10.9428 24.2758C11.1929 24.0258 11.3333 23.6866 11.3333 23.333C11.3333 22.9794 11.1929 22.6403 10.9428 22.3902C10.6928 22.1402 10.3536 21.9997 10 21.9997C9.64638 21.9997 9.30724 22.1402 9.05719 22.3902C8.80714 22.6403 8.66666 22.9794 8.66666 23.333C8.66666 23.6866 8.80714 24.0258 9.05719 24.2758C9.30724 24.5259 9.64638 24.6664 10 24.6664Z" fill="currentColor"/>
</svg>
