<svg width="28" height="24" viewBox="0 0 28 24" fill="none" xmlns="http://www.w3.org/2000/svg">
<path d="M2 0H26C26.3536 0 26.6928 0.140476 26.9428 0.390524C27.1929 0.640573 27.3333 0.979711 27.3333 1.33333V22.6667C27.3333 23.0203 27.1929 23.3594 26.9428 23.6095C26.6928 23.8595 26.3536 24 26 24H2C1.64638 24 1.30724 23.8595 1.05719 23.6095C0.80714 23.3594 0.666664 23.0203 0.666664 22.6667V1.33333C0.666664 0.979711 0.80714 0.640573 1.05719 0.390524C1.30724 0.140476 1.64638 0 2 0ZM24.6667 12H3.33333V21.3333H24.6667V12ZM24.6667 6.66667V2.66667H3.33333V6.66667H24.6667Z" fill="currentColor"/>
</svg>
